<?xml version="1.0" encoding="utf-8"?>
<!-- Generator: Adobe Illustrator 17.0.0, SVG Export Plug-In . SVG Version: 6.00 Build 0)  -->
<!DOCTYPE svg PUBLIC "-//W3C//DTD SVG 1.1//EN" "http://www.w3.org/Graphics/SVG/1.1/DTD/svg11.dtd">
<svg version="1.1" id="Capa_1" xmlns="http://www.w3.org/2000/svg" xmlns:xlink="http://www.w3.org/1999/xlink" x="0px" y="0px"
	 width="112.087px" height="82.288px" viewBox="0 0 112.087 82.288" enable-background="new 0 0 112.087 82.288"
	 xml:space="preserve">
<g>
	<g>
		<g>
			<path fill="#FFFFFF" d="M81.6,31.094V20.686h-7.099c-0.549-1.843-1.35-3.577-2.363-5.165l4.945-4.945l-7.36-7.36L64.51,8.429
				c-1.642-0.884-3.418-1.548-5.288-1.96V0H48.814v6.876c-1.425,0.435-2.784,1.022-4.06,1.74L40.07,3.931l-7.36,7.36l4.547,4.547
				c-1.034,1.689-1.831,3.537-2.345,5.499h-6.003v10.408h6.003c0.522,1.993,1.337,3.868,2.395,5.578l-4.402,4.403l7.36,7.36
				l4.572-4.572c1.522,0.847,3.161,1.508,4.888,1.949v5.579h10.408v-5.65c1.788-0.481,3.479-1.198,5.041-2.115l5.005,5.005
				l7.36-7.36l-5.005-5.005c1.049-1.787,1.835-3.744,2.307-5.821H81.6z M44.651,26.54c0-5.596,4.552-10.148,10.148-10.148
				s10.148,4.552,10.148,10.148s-4.552,10.148-10.148,10.148S44.651,32.136,44.651,26.54z"/>
		</g>
	</g>
	<g>
		<path fill="#FFFFFF" d="M0,82.131V70.65h0.802v11.48H0z"/>
		<path fill="#FFFFFF" d="M12.399,82.131h-0.809L4.79,71.938H4.728c0.063,1.215,0.094,2.131,0.094,2.748v7.444h-0.77V70.65h0.802
			l6.792,10.177h0.047c-0.047-0.942-0.07-1.837-0.07-2.686V70.65h0.777V82.131z"/>
		<path fill="#FFFFFF" d="M21.988,79.171c0,0.958-0.353,1.717-1.057,2.276c-0.704,0.561-1.64,0.841-2.808,0.841
			c-1.402,0-2.479-0.154-3.227-0.464v-0.801c0.826,0.351,1.882,0.526,3.164,0.526c0.942,0,1.689-0.216,2.242-0.647
			c0.552-0.433,0.828-0.999,0.828-1.7c0-0.435-0.092-0.795-0.274-1.08c-0.184-0.285-0.482-0.546-0.896-0.781
			c-0.414-0.235-1.021-0.489-1.822-0.762c-1.172-0.403-1.982-0.839-2.43-1.308c-0.448-0.468-0.672-1.093-0.672-1.873
			c0-0.858,0.337-1.559,1.01-2.1c0.672-0.542,1.537-0.813,2.595-0.813c1.078,0,2.092,0.204,3.039,0.612l-0.291,0.691
			c-0.952-0.397-1.863-0.597-2.732-0.597c-0.848,0-1.523,0.196-2.025,0.589c-0.503,0.393-0.754,0.927-0.754,1.602
			c0,0.425,0.077,0.772,0.231,1.045c0.154,0.272,0.407,0.517,0.758,0.734c0.351,0.217,0.952,0.478,1.806,0.781
			c0.896,0.309,1.568,0.608,2.019,0.898c0.45,0.291,0.778,0.621,0.985,0.99S21.988,78.647,21.988,79.171z"/>
		<path fill="#FFFFFF" d="M27.405,82.131h-0.809V71.404h-3.73V70.65h8.27v0.754h-3.73V82.131z"/>
		<path fill="#FFFFFF" d="M37.244,78.079H32.58l-1.602,4.052h-0.888l4.617-11.527h0.511l4.522,11.527h-0.902L37.244,78.079z
			 M32.87,77.356h4.107l-1.563-4.138c-0.131-0.325-0.288-0.775-0.472-1.352c-0.141,0.503-0.296,0.958-0.463,1.367L32.87,77.356z"/>
		<path fill="#FFFFFF" d="M41.367,82.131V70.65h0.802v10.727h5.473v0.754H41.367z"/>
		<path fill="#FFFFFF" d="M55.148,78.079h-4.664l-1.602,4.052h-0.888l4.617-11.527h0.511l4.522,11.527h-0.902L55.148,78.079z
			 M50.774,77.356h4.107l-1.563-4.138c-0.131-0.325-0.288-0.775-0.472-1.352c-0.141,0.503-0.296,0.958-0.463,1.367L50.774,77.356z"
			/>
		<path fill="#FFFFFF" d="M63.849,71.208c-1.439,0-2.573,0.461-3.4,1.382c-0.827,0.922-1.24,2.184-1.24,3.785
			c0,1.639,0.39,2.911,1.17,3.816s1.895,1.358,3.345,1.358c0.964,0,1.849-0.123,2.654-0.369v0.707c-0.759,0.267-1.706,0.4-2.843,0.4
			c-1.612,0-2.882-0.521-3.808-1.563c-0.927-1.042-1.391-2.497-1.391-4.366c0-1.167,0.222-2.196,0.664-3.086
			s1.078-1.577,1.908-2.062c0.829-0.484,1.794-0.727,2.894-0.727c1.12,0,2.122,0.21,3.007,0.629l-0.321,0.722
			C65.649,71.418,64.77,71.208,63.849,71.208z"/>
		<path fill="#FFFFFF" d="M68.937,82.131V70.65h0.802v11.48H68.937z"/>
		<path fill="#FFFFFF" d="M82.641,76.375c0,1.821-0.456,3.263-1.366,4.323c-0.911,1.06-2.168,1.59-3.77,1.59
			c-1.597,0-2.851-0.53-3.762-1.59c-0.91-1.061-1.366-2.507-1.366-4.339c0-1.827,0.46-3.266,1.378-4.315
			c0.919-1.049,2.174-1.574,3.766-1.574c1.602,0,2.855,0.527,3.762,1.582C82.187,73.107,82.641,74.548,82.641,76.375z
			 M73.249,76.375c0,1.644,0.366,2.915,1.1,3.813c0.732,0.897,1.784,1.347,3.156,1.347c1.382,0,2.438-0.445,3.169-1.335
			c0.729-0.89,1.095-2.165,1.095-3.824c0-1.654-0.365-2.923-1.095-3.805c-0.73-0.882-1.781-1.323-3.153-1.323
			c-1.366,0-2.42,0.445-3.16,1.335C73.619,73.473,73.249,74.736,73.249,76.375z"/>
		<path fill="#FFFFFF" d="M93.626,82.131h-0.809l-6.801-10.192h-0.063c0.063,1.215,0.094,2.131,0.094,2.748v7.444h-0.77V70.65h0.802
			l6.792,10.177h0.047c-0.047-0.942-0.07-1.837-0.07-2.686V70.65h0.777V82.131z"/>
		<path fill="#FFFFFF" d="M103.15,82.131h-6.274V70.65h6.274v0.738h-5.473v4.343h5.167v0.737h-5.167v4.924h5.473V82.131z"/>
		<path fill="#FFFFFF" d="M112.087,79.171c0,0.958-0.353,1.717-1.057,2.276c-0.704,0.561-1.64,0.841-2.808,0.841
			c-1.402,0-2.479-0.154-3.227-0.464v-0.801c0.826,0.351,1.882,0.526,3.164,0.526c0.942,0,1.689-0.216,2.242-0.647
			c0.552-0.433,0.828-0.999,0.828-1.7c0-0.435-0.092-0.795-0.274-1.08c-0.184-0.285-0.482-0.546-0.896-0.781
			c-0.414-0.235-1.021-0.489-1.822-0.762c-1.172-0.403-1.982-0.839-2.43-1.308c-0.448-0.468-0.672-1.093-0.672-1.873
			c0-0.858,0.337-1.559,1.01-2.1c0.672-0.542,1.537-0.813,2.595-0.813c1.078,0,2.092,0.204,3.039,0.612l-0.291,0.691
			c-0.952-0.397-1.863-0.597-2.732-0.597c-0.848,0-1.523,0.196-2.025,0.589c-0.503,0.393-0.754,0.927-0.754,1.602
			c0,0.425,0.077,0.772,0.231,1.045s0.407,0.517,0.758,0.734c0.351,0.217,0.952,0.478,1.806,0.781
			c0.896,0.309,1.568,0.608,2.019,0.898c0.45,0.291,0.778,0.621,0.985,0.99S112.087,78.647,112.087,79.171z"/>
	</g>
</g>
</svg>
