<svg version="1.1" id="Capa_1" xmlns="http://www.w3.org/2000/svg" xmlns:xlink="http://www.w3.org/1999/xlink" x="0px" y="0px"
	  viewBox="0 0 2600.111 121" enable-background="new 0 0 2600.111 121" xml:space="preserve">
<g>
	<polygon fill="#58595B" points="2535.111,121 0.257,121 0.257,0 2535.111,0 2600.111,60.501 	"/>
	<g>
		<path fill="#FFFFFF" d="M2492.04,48.595V38.187h-7.099c-0.549-1.843-1.35-3.577-2.363-5.165l4.945-4.945l-7.36-7.36l-5.213,5.213
			c-1.642-0.884-3.418-1.548-5.288-1.96v-6.469h-10.408v6.876c-1.425,0.435-2.784,1.022-4.06,1.74l-4.685-4.685l-7.36,7.36
			l4.547,4.547c-1.034,1.689-1.831,3.537-2.344,5.499h-6.003v10.408h6.003c0.522,1.993,1.337,3.868,2.395,5.578l-4.402,4.402
			l7.36,7.36l4.572-4.572c1.522,0.847,3.161,1.508,4.888,1.949v5.579h10.408v-5.65c1.788-0.481,3.479-1.198,5.041-2.115l5.005,5.005
			l7.36-7.36l-5.005-5.005c1.049-1.787,1.835-3.744,2.307-5.821H2492.04z M2455.091,44.041c0-5.596,4.552-10.148,10.148-10.148
			c5.596,0,10.148,4.552,10.148,10.148s-4.552,10.148-10.148,10.148C2459.644,54.189,2455.091,49.637,2455.091,44.041z"/>
	</g>
	<g>
		<path fill="#FFFFFF" d="M2410.44,99.632v-11.48h0.802v11.48H2410.44z"/>
		<path fill="#FFFFFF" d="M2422.84,99.632h-0.809l-6.801-10.192h-0.063c0.063,1.215,0.094,2.131,0.094,2.748v7.444h-0.77v-11.48
			h0.802l6.792,10.177h0.047c-0.047-0.942-0.07-1.837-0.07-2.686v-7.491h0.777V99.632z"/>
		<path fill="#FFFFFF" d="M2432.429,96.672c0,0.958-0.353,1.717-1.057,2.276c-0.704,0.561-1.64,0.841-2.808,0.841
			c-1.402,0-2.479-0.154-3.227-0.464v-0.801c0.826,0.351,1.882,0.526,3.164,0.526c0.942,0,1.689-0.216,2.242-0.647
			c0.552-0.433,0.828-0.999,0.828-1.7c0-0.435-0.092-0.795-0.274-1.08c-0.184-0.285-0.482-0.546-0.896-0.781
			c-0.414-0.235-1.021-0.489-1.822-0.762c-1.172-0.403-1.982-0.839-2.43-1.308c-0.448-0.468-0.672-1.093-0.672-1.873
			c0-0.858,0.337-1.559,1.01-2.1c0.672-0.542,1.537-0.813,2.595-0.813c1.078,0,2.092,0.204,3.039,0.612l-0.291,0.691
			c-0.952-0.397-1.863-0.597-2.732-0.597c-0.848,0-1.523,0.196-2.025,0.589c-0.503,0.393-0.754,0.927-0.754,1.602
			c0,0.425,0.077,0.772,0.231,1.045s0.407,0.517,0.758,0.734c0.351,0.217,0.952,0.478,1.806,0.781
			c0.896,0.309,1.568,0.608,2.019,0.898c0.45,0.291,0.778,0.621,0.985,0.99S2432.429,96.148,2432.429,96.672z"/>
		<path fill="#FFFFFF" d="M2437.846,99.632h-0.809V88.905h-3.73v-0.754h8.27v0.754h-3.73V99.632z"/>
		<path fill="#FFFFFF" d="M2447.685,95.58h-4.664l-1.602,4.052h-0.888l4.617-11.527h0.511l4.522,11.527h-0.902L2447.685,95.58z
			 M2443.311,94.857h4.107l-1.563-4.138c-0.131-0.325-0.288-0.775-0.472-1.352c-0.141,0.503-0.296,0.958-0.463,1.367
			L2443.311,94.857z"/>
		<path fill="#FFFFFF" d="M2451.808,99.632v-11.48h0.802v10.727h5.473v0.754H2451.808z"/>
		<path fill="#FFFFFF" d="M2465.589,95.58h-4.664l-1.602,4.052h-0.888l4.617-11.527h0.511l4.522,11.527h-0.902L2465.589,95.58z
			 M2461.215,94.857h4.107l-1.563-4.138c-0.131-0.325-0.288-0.775-0.472-1.352c-0.141,0.503-0.296,0.958-0.463,1.367
			L2461.215,94.857z"/>
		<path fill="#FFFFFF" d="M2474.289,88.709c-1.439,0-2.573,0.461-3.4,1.382c-0.827,0.922-1.24,2.184-1.24,3.785
			c0,1.639,0.39,2.911,1.17,3.816s1.895,1.358,3.345,1.358c0.964,0,1.849-0.123,2.654-0.369v0.707c-0.759,0.267-1.706,0.4-2.843,0.4
			c-1.612,0-2.882-0.521-3.808-1.563c-0.927-1.042-1.391-2.497-1.391-4.366c0-1.167,0.222-2.196,0.664-3.086
			s1.078-1.577,1.908-2.062c0.829-0.484,1.794-0.727,2.894-0.727c1.12,0,2.122,0.21,3.007,0.629l-0.321,0.722
			C2476.09,88.919,2475.21,88.709,2474.289,88.709z"/>
		<path fill="#FFFFFF" d="M2479.377,99.632v-11.48h0.802v11.48H2479.377z"/>
		<path fill="#FFFFFF" d="M2493.081,93.876c0,1.821-0.456,3.263-1.366,4.323c-0.911,1.06-2.168,1.59-3.77,1.59
			c-1.597,0-2.851-0.53-3.762-1.59c-0.91-1.061-1.366-2.507-1.366-4.339c0-1.827,0.46-3.266,1.378-4.315
			c0.919-1.049,2.174-1.574,3.766-1.574c1.602,0,2.855,0.527,3.762,1.582C2492.628,90.608,2493.081,92.049,2493.081,93.876z
			 M2483.689,93.876c0,1.644,0.366,2.915,1.1,3.813c0.732,0.897,1.784,1.347,3.156,1.347c1.382,0,2.438-0.445,3.169-1.335
			c0.729-0.89,1.095-2.165,1.095-3.824c0-1.654-0.365-2.923-1.095-3.805c-0.73-0.882-1.781-1.323-3.153-1.323
			c-1.366,0-2.42,0.445-3.16,1.335C2484.06,90.974,2483.689,92.237,2483.689,93.876z"/>
		<path fill="#FFFFFF" d="M2504.066,99.632h-0.809l-6.801-10.192h-0.063c0.063,1.215,0.094,2.131,0.094,2.748v7.444h-0.77v-11.48
			h0.802l6.792,10.177h0.047c-0.047-0.942-0.07-1.837-0.07-2.686v-7.491h0.777V99.632z"/>
		<path fill="#FFFFFF" d="M2513.591,99.632h-6.274v-11.48h6.274v0.738h-5.473v4.343h5.167v0.737h-5.167v4.924h5.473V99.632z"/>
		<path fill="#FFFFFF" d="M2522.527,96.672c0,0.958-0.353,1.717-1.057,2.276c-0.704,0.561-1.64,0.841-2.808,0.841
			c-1.402,0-2.479-0.154-3.227-0.464v-0.801c0.826,0.351,1.882,0.526,3.164,0.526c0.942,0,1.689-0.216,2.242-0.647
			c0.552-0.433,0.828-0.999,0.828-1.7c0-0.435-0.092-0.795-0.274-1.08c-0.184-0.285-0.482-0.546-0.896-0.781
			c-0.414-0.235-1.021-0.489-1.822-0.762c-1.172-0.403-1.982-0.839-2.43-1.308c-0.448-0.468-0.672-1.093-0.672-1.873
			c0-0.858,0.337-1.559,1.01-2.1c0.672-0.542,1.537-0.813,2.595-0.813c1.078,0,2.092,0.204,3.039,0.612l-0.291,0.691
			c-0.952-0.397-1.863-0.597-2.732-0.597c-0.848,0-1.523,0.196-2.025,0.589c-0.503,0.393-0.754,0.927-0.754,1.602
			c0,0.425,0.077,0.772,0.231,1.045s0.407,0.517,0.758,0.734c0.351,0.217,0.952,0.478,1.806,0.781
			c0.896,0.309,1.568,0.608,2.019,0.898c0.45,0.291,0.778,0.621,0.985,0.99S2522.527,96.148,2522.527,96.672z"/>
	</g>
</g>
</svg>
