<?xml version="1.0" encoding="utf-8"?>
<!-- Generator: Adobe Illustrator 17.0.0, SVG Export Plug-In . SVG Version: 6.00 Build 0)  -->
<!DOCTYPE svg PUBLIC "-//W3C//DTD SVG 1.1//EN" "http://www.w3.org/Graphics/SVG/1.1/DTD/svg11.dtd">
<svg version="1.1" id="Capa_1" xmlns="http://www.w3.org/2000/svg" xmlns:xlink="http://www.w3.org/1999/xlink" x="0px" y="0px"
	 width="70.248px" height="79.901px" viewBox="0 0 70.248 79.901" enable-background="new 0 0 70.248 79.901" xml:space="preserve">
<g>
	<g>
		<path fill="#FFFFFF" d="M0.802,74.741v5.002H0v-11.48h2.733c1.424,0,2.476,0.264,3.156,0.789c0.681,0.526,1.021,1.318,1.021,2.376
			c0,0.77-0.203,1.418-0.609,1.947c-0.405,0.528-1.021,0.908-1.849,1.139l3.117,5.229H6.612l-2.96-5.002H0.802z M0.802,74.05h2.19
			c0.969,0,1.72-0.216,2.254-0.647s0.801-1.069,0.801-1.912c0-0.874-0.262-1.511-0.785-1.908s-1.377-0.597-2.56-0.597h-1.9V74.05z"
			/>
		<path fill="#FFFFFF" d="M15.831,79.743H9.557v-11.48h6.274v0.738h-5.473v4.343h5.167v0.737h-5.167v4.924h5.473V79.743z"/>
		<path fill="#FFFFFF" d="M19.231,79.743H18.43v-11.48h6.29v0.738h-5.488v4.868h5.183v0.746h-5.183V79.743z"/>
		<path fill="#FFFFFF" d="M36.153,73.987c0,1.821-0.456,3.263-1.366,4.323c-0.911,1.06-2.168,1.59-3.77,1.59
			c-1.597,0-2.851-0.53-3.762-1.59c-0.91-1.061-1.366-2.507-1.366-4.339c0-1.827,0.46-3.266,1.378-4.315
			c0.919-1.049,2.174-1.574,3.766-1.574c1.602,0,2.855,0.527,3.762,1.582C35.7,70.72,36.153,72.16,36.153,73.987z M26.762,73.987
			c0,1.644,0.366,2.915,1.1,3.813c0.732,0.897,1.784,1.347,3.156,1.347c1.382,0,2.438-0.445,3.169-1.335
			c0.729-0.89,1.095-2.165,1.095-3.824c0-1.654-0.365-2.923-1.095-3.805c-0.73-0.882-1.781-1.323-3.153-1.323
			c-1.366,0-2.42,0.445-3.16,1.335C27.132,71.085,26.762,72.349,26.762,73.987z"/>
		<path fill="#FFFFFF" d="M39.593,74.741v5.002h-0.802v-11.48h2.733c1.424,0,2.476,0.264,3.156,0.789
			c0.681,0.526,1.021,1.318,1.021,2.376c0,0.77-0.203,1.418-0.609,1.947c-0.405,0.528-1.021,0.908-1.849,1.139l3.117,5.229h-0.958
			l-2.96-5.002H39.593z M39.593,74.05h2.19c0.969,0,1.72-0.216,2.254-0.647s0.801-1.069,0.801-1.912
			c0-0.874-0.262-1.511-0.785-1.908s-1.377-0.597-2.56-0.597h-1.9V74.05z"/>
		<path fill="#FFFFFF" d="M53.397,79.743l-4.28-10.601h-0.063c0.042,0.648,0.063,1.313,0.063,1.994v8.606h-0.77v-11.48h1.241
			l4.067,10.099h0.047l4.068-10.099h1.209v11.48h-0.809v-8.7c0-0.607,0.031-1.235,0.094-1.885h-0.063l-4.296,10.585H53.397z"/>
		<path fill="#FFFFFF" d="M67.751,75.692h-4.664l-1.602,4.052h-0.888l4.617-11.527h0.511l4.522,11.527h-0.902L67.751,75.692z
			 M63.377,74.969h4.107l-1.563-4.138c-0.131-0.325-0.288-0.775-0.472-1.352c-0.141,0.503-0.296,0.958-0.463,1.367L63.377,74.969z"
			/>
	</g>
	<g>
		<g>
			<path fill="#FFFFFF" d="M54.68,19.642l-6.368-3.229V9.238l11.296-5.817C57.128,1.289,53.902,0,50.374,0
				c-7.826,0-14.171,6.345-14.171,14.171s6.345,14.171,14.171,14.171s14.171-6.345,14.171-14.171c0-0.041-0.001-0.082-0.002-0.124
				L54.68,19.642z"/>
		</g>
		<g>
			<path fill="#FFFFFF" d="M38.535,25.292c-2.153-2.153-3.139-4.933-3.139-4.933S15.306,40.45,13.781,41.975
				c-1.525,1.525-1.256,4.036-0.09,5.202c1.166,1.166,3.274,3.363,4.215,4.305s3.677,0.718,5.023-0.628
				c1.345-1.345,21.481-21.481,21.481-21.481S40.688,27.445,38.535,25.292z M20.418,45.921c-0.793,0-1.435-0.642-1.435-1.435
				c0-0.793,0.642-1.435,1.435-1.435c0.793,0,1.435,0.642,1.435,1.435C21.853,45.279,21.211,45.921,20.418,45.921z"/>
		</g>
	</g>
</g>
</svg>
