<?xml version="1.0" encoding="utf-8"?>
<!-- Generator: Adobe Illustrator 17.0.0, SVG Export Plug-In . SVG Version: 6.00 Build 0)  -->
<!DOCTYPE svg PUBLIC "-//W3C//DTD SVG 1.1//EN" "http://www.w3.org/Graphics/SVG/1.1/DTD/svg11.dtd">
<svg version="1.1" id="Capa_1" xmlns="http://www.w3.org/2000/svg" xmlns:xlink="http://www.w3.org/1999/xlink" x="0px" y="0px"
	 width="95.07px" height="82.288px" viewBox="0 0 95.07 82.288" enable-background="new 0 0 95.07 82.288" xml:space="preserve">
<g>
	<g>
		<path fill="#FFFFFF" d="M10.264,76.375c0,1.821-0.456,3.263-1.366,4.323c-0.911,1.06-2.168,1.59-3.77,1.59
			c-1.597,0-2.851-0.53-3.762-1.59C0.456,79.638,0,78.191,0,76.359c0-1.827,0.46-3.266,1.378-4.315
			c0.919-1.049,2.174-1.574,3.766-1.574c1.602,0,2.855,0.527,3.762,1.582C9.811,73.107,10.264,74.548,10.264,76.375z M0.872,76.375
			c0,1.644,0.366,2.915,1.1,3.813c0.732,0.897,1.784,1.347,3.156,1.347c1.382,0,2.438-0.445,3.169-1.335
			c0.729-0.89,1.095-2.165,1.095-3.824c0-1.654-0.365-2.923-1.095-3.805c-0.73-0.882-1.781-1.323-3.153-1.323
			c-1.366,0-2.42,0.445-3.16,1.335C1.242,73.473,0.872,74.736,0.872,76.375z"/>
		<path fill="#FFFFFF" d="M12.901,70.65h3.149c1.419,0,2.46,0.241,3.125,0.723s0.997,1.209,0.997,2.183
			c0,0.665-0.202,1.219-0.608,1.661c-0.405,0.442-0.998,0.727-1.778,0.852v0.048c0.916,0.136,1.59,0.425,2.021,0.867
			c0.433,0.442,0.648,1.059,0.648,1.85c0,1.058-0.351,1.871-1.053,2.442c-0.701,0.57-1.695,0.855-2.983,0.855h-3.519V70.65z
			 M13.703,75.763h2.528c1.078,0,1.862-0.18,2.352-0.538s0.734-0.92,0.734-1.685c0-0.764-0.276-1.319-0.828-1.664
			c-0.553-0.346-1.376-0.519-2.47-0.519h-2.316V75.763z M13.703,76.469v4.955h2.701c2.125,0,3.188-0.863,3.188-2.591
			c0-1.576-1.12-2.364-3.36-2.364H13.703z"/>
		<path fill="#FFFFFF" d="M23.786,77.129v5.002h-0.802V70.65h2.733c1.424,0,2.476,0.264,3.156,0.789
			c0.681,0.526,1.021,1.318,1.021,2.376c0,0.77-0.203,1.418-0.609,1.947c-0.405,0.528-1.021,0.908-1.849,1.139l3.117,5.229h-0.958
			l-2.96-5.002H23.786z M23.786,76.438h2.19c0.969,0,1.72-0.216,2.254-0.647s0.801-1.069,0.801-1.912
			c0-0.874-0.262-1.511-0.785-1.908s-1.377-0.597-2.56-0.597h-1.9V76.438z"/>
		<path fill="#FFFFFF" d="M38.068,78.079h-4.664l-1.602,4.052h-0.888l4.617-11.527h0.511l4.522,11.527h-0.902L38.068,78.079z
			 M33.694,77.356h4.107l-1.563-4.138c-0.131-0.325-0.288-0.775-0.472-1.352c-0.141,0.503-0.296,0.958-0.463,1.367L33.694,77.356z"
			/>
		<path fill="#FFFFFF" d="M54.717,82.131h-0.809l-6.801-10.192h-0.063c0.063,1.215,0.094,2.131,0.094,2.748v7.444h-0.77V70.65h0.802
			l6.792,10.177h0.047c-0.047-0.942-0.07-1.837-0.07-2.686V70.65h0.777V82.131z"/>
		<path fill="#FFFFFF" d="M66.408,70.65v7.429c0,1.319-0.382,2.351-1.146,3.094c-0.765,0.743-1.83,1.115-3.196,1.115
			c-1.33,0-2.367-0.373-3.113-1.119s-1.119-1.786-1.119-3.121V70.65h0.809v7.429c0,1.104,0.307,1.964,0.919,2.579
			s1.479,0.923,2.599,0.923c1.095,0,1.942-0.302,2.545-0.907c0.602-0.604,0.902-1.443,0.902-2.517V70.65H66.408z"/>
		<path fill="#FFFFFF" d="M75.808,82.131h-6.274V70.65h6.274v0.738h-5.473v4.343h5.167v0.737h-5.167v4.924h5.473V82.131z"/>
		<path fill="#FFFFFF" d="M85.192,70.65h0.871l-4.295,11.48h-0.707l-4.279-11.48h0.855l2.891,7.813
			c0.439,1.178,0.735,2.063,0.887,2.654c0.104-0.393,0.312-1.003,0.62-1.83L85.192,70.65z"/>
		<path fill="#FFFFFF" d="M92.573,78.079h-4.664l-1.602,4.052H85.42l4.617-11.527h0.511l4.522,11.527h-0.902L92.573,78.079z
			 M88.199,77.356h4.107l-1.563-4.138c-0.131-0.325-0.288-0.775-0.472-1.352c-0.141,0.503-0.296,0.958-0.463,1.367L88.199,77.356z"
			/>
	</g>
	<g>
		<g>
			<path fill="#FFFFFF" d="M25.614,29.636L47.364,11.7L69.52,29.555c0,0,0,17.855,0,18.666s-1.136,2.394-2.394,2.394
				s-14.649,0-14.649,0V35.966h-9.901v14.446c0,0-12.742,0-14.202,0s-2.759-1.217-2.759-2.597S25.614,29.636,25.614,29.636z"/>
		</g>
		<g>
			<polygon fill="#FFFFFF" points="69.439,18.447 69.439,1.88 59.781,1.88 59.781,10.345 47.449,0 16.228,26.09 20.391,31.072 
				47.441,8.468 74.575,31.23 78.748,26.256 			"/>
		</g>
	</g>
</g>
</svg>
