
<svg version="1.1" id="Capa_1" xmlns="http://www.w3.org/2000/svg" xmlns:xlink="http://www.w3.org/1999/xlink" x="0px" y="0px"
	 viewBox="0 0 2600.107 121" enable-background="new 0 0 2600.107 121" xml:space="preserve">
<g>
	<polygon fill="#58595B" points="65.253,121 2602.25,121 2602.25,0 65.253,0 0.253,60.501 	"/>
	<g>
		<path fill="#FFFFFF" d="M89.449,93.876c0,1.821-0.456,3.263-1.366,4.323c-0.911,1.06-2.168,1.59-3.77,1.59
			c-1.597,0-2.851-0.53-3.762-1.59c-0.91-1.061-1.366-2.507-1.366-4.339c0-1.827,0.46-3.266,1.378-4.315
			c0.919-1.049,2.174-1.574,3.766-1.574c1.602,0,2.855,0.527,3.762,1.582C88.996,90.609,89.449,92.049,89.449,93.876z
			 M80.057,93.876c0,1.644,0.366,2.915,1.1,3.813c0.732,0.897,1.784,1.347,3.156,1.347c1.382,0,2.438-0.445,3.169-1.335
			c0.729-0.89,1.095-2.165,1.095-3.824c0-1.654-0.365-2.923-1.095-3.805c-0.73-0.882-1.781-1.323-3.153-1.323
			c-1.366,0-2.42,0.445-3.16,1.335C80.428,90.974,80.057,92.238,80.057,93.876z"/>
		<path fill="#FFFFFF" d="M92.087,88.152h3.149c1.419,0,2.46,0.241,3.125,0.723s0.997,1.209,0.997,2.183
			c0,0.665-0.202,1.219-0.608,1.661c-0.405,0.442-0.998,0.727-1.778,0.852v0.048c0.916,0.136,1.59,0.425,2.021,0.867
			c0.433,0.442,0.648,1.059,0.648,1.85c0,1.058-0.351,1.871-1.053,2.442c-0.701,0.57-1.695,0.855-2.983,0.855h-3.519V88.152z
			 M92.889,93.264h2.528c1.078,0,1.862-0.18,2.352-0.538s0.734-0.92,0.734-1.685c0-0.764-0.276-1.319-0.828-1.664
			c-0.553-0.346-1.376-0.519-2.47-0.519h-2.316V93.264z M92.889,93.97v4.955h2.701c2.125,0,3.188-0.863,3.188-2.591
			c0-1.576-1.12-2.364-3.36-2.364H92.889z"/>
		<path fill="#FFFFFF" d="M102.972,94.63v5.002h-0.802v-11.48h2.733c1.424,0,2.476,0.264,3.156,0.789
			c0.681,0.526,1.021,1.318,1.021,2.376c0,0.77-0.203,1.418-0.609,1.947c-0.405,0.528-1.021,0.908-1.849,1.139l3.117,5.229h-0.958
			l-2.96-5.002H102.972z M102.972,93.939h2.19c0.969,0,1.72-0.216,2.254-0.647s0.801-1.069,0.801-1.912
			c0-0.874-0.262-1.511-0.785-1.908s-1.377-0.597-2.56-0.597h-1.9V93.939z"/>
		<path fill="#FFFFFF" d="M117.254,95.58h-4.664l-1.602,4.052H110.1l4.617-11.527h0.511l4.522,11.527h-0.902L117.254,95.58z
			 M112.88,94.858h4.107l-1.563-4.138c-0.131-0.325-0.288-0.775-0.472-1.352c-0.141,0.503-0.296,0.958-0.463,1.367L112.88,94.858z"
			/>
		<path fill="#FFFFFF" d="M133.902,99.632h-0.809l-6.801-10.192h-0.063c0.063,1.215,0.094,2.131,0.094,2.748v7.444h-0.77v-11.48
			h0.802l6.792,10.177h0.047c-0.047-0.942-0.07-1.837-0.07-2.686v-7.491h0.777V99.632z"/>
		<path fill="#FFFFFF" d="M145.594,88.152v7.429c0,1.319-0.382,2.351-1.146,3.094c-0.765,0.743-1.83,1.115-3.196,1.115
			c-1.33,0-2.367-0.373-3.113-1.119s-1.119-1.786-1.119-3.121v-7.397h0.809v7.429c0,1.104,0.307,1.964,0.919,2.579
			s1.479,0.923,2.599,0.923c1.095,0,1.942-0.302,2.545-0.907c0.602-0.604,0.902-1.443,0.902-2.517v-7.507H145.594z"/>
		<path fill="#FFFFFF" d="M154.993,99.632h-6.274v-11.48h6.274v0.738h-5.473v4.343h5.167v0.737h-5.167v4.924h5.473V99.632z"/>
		<path fill="#FFFFFF" d="M164.378,88.152h0.871l-4.295,11.48h-0.707l-4.279-11.48h0.855l2.891,7.813
			c0.439,1.178,0.735,2.063,0.887,2.654c0.104-0.393,0.312-1.003,0.62-1.83L164.378,88.152z"/>
		<path fill="#FFFFFF" d="M171.759,95.58h-4.664l-1.602,4.052h-0.888l4.617-11.527h0.511l4.522,11.527h-0.902L171.759,95.58z
			 M167.385,94.858h4.107l-1.563-4.138c-0.131-0.325-0.288-0.775-0.472-1.352c-0.141,0.503-0.296,0.958-0.463,1.367L167.385,94.858z
			"/>
	</g>
	<g>
		<path fill="#FFFFFF" d="M104.799,47.137l21.75-17.936l22.156,17.855c0,0,0,17.855,0,18.666s-1.136,2.394-2.394,2.394
			s-14.649,0-14.649,0V53.467h-9.901v14.446c0,0-12.742,0-14.202,0s-2.759-1.217-2.759-2.597S104.799,47.137,104.799,47.137z"/>
		<polygon fill="#FFFFFF" points="148.624,35.948 148.624,19.381 138.966,19.381 138.966,27.846 126.634,17.501 95.413,43.591 
			99.577,48.573 126.626,25.969 153.761,48.731 157.933,43.757 		"/>
	</g>
</g>
</svg>
