<?xml version="1.0" encoding="utf-8"?>
<!-- Generator: Adobe Illustrator 17.0.0, SVG Export Plug-In . SVG Version: 6.00 Build 0)  -->
<!DOCTYPE svg PUBLIC "-//W3C//DTD SVG 1.1//EN" "http://www.w3.org/Graphics/SVG/1.1/DTD/svg11.dtd">
<svg version="1.1" id="Capa_1" xmlns="http://www.w3.org/2000/svg" xmlns:xlink="http://www.w3.org/1999/xlink" x="0px" y="0px"
	 width="2600.107px" height="121px" viewBox="0 0 2600.107 121" enable-background="new 0 0 2600.107 121" xml:space="preserve">
<g>
	<polygon fill="#58595B" points="2535.107,121 0.253,121 0.253,0 2535.107,0 2600.107,60.501 	"/>
	<g>
		<path fill="#FFFFFF" d="M2432.558,94.63v5.002h-0.802v-11.48h2.733c1.424,0,2.476,0.264,3.156,0.789
			c0.681,0.526,1.021,1.318,1.021,2.376c0,0.77-0.203,1.418-0.609,1.947c-0.405,0.528-1.021,0.908-1.849,1.139l3.117,5.229h-0.958
			l-2.96-5.002H2432.558z M2432.558,93.939h2.19c0.969,0,1.72-0.216,2.254-0.647s0.801-1.069,0.801-1.912
			c0-0.874-0.262-1.511-0.785-1.908s-1.377-0.597-2.56-0.597h-1.9V93.939z"/>
		<path fill="#FFFFFF" d="M2447.588,99.632h-6.274v-11.48h6.274v0.738h-5.473v4.343h5.167v0.737h-5.167v4.924h5.473V99.632z"/>
		<path fill="#FFFFFF" d="M2450.988,99.632h-0.802v-11.48h6.29v0.738h-5.488v4.868h5.183v0.746h-5.183V99.632z"/>
		<path fill="#FFFFFF" d="M2467.91,93.876c0,1.821-0.456,3.263-1.366,4.323c-0.911,1.06-2.168,1.59-3.77,1.59
			c-1.597,0-2.851-0.53-3.762-1.59c-0.91-1.061-1.366-2.507-1.366-4.339c0-1.827,0.46-3.266,1.378-4.315
			c0.919-1.049,2.174-1.574,3.766-1.574c1.602,0,2.855,0.527,3.762,1.582C2467.457,90.608,2467.91,92.049,2467.91,93.876z
			 M2458.518,93.876c0,1.644,0.366,2.915,1.1,3.813c0.732,0.897,1.784,1.347,3.156,1.347c1.382,0,2.438-0.445,3.169-1.335
			c0.729-0.89,1.095-2.165,1.095-3.824c0-1.654-0.365-2.923-1.095-3.805c-0.73-0.882-1.781-1.323-3.153-1.323
			c-1.366,0-2.42,0.445-3.16,1.335C2458.888,90.974,2458.518,92.237,2458.518,93.876z"/>
		<path fill="#FFFFFF" d="M2471.349,94.63v5.002h-0.802v-11.48h2.733c1.424,0,2.476,0.264,3.156,0.789
			c0.681,0.526,1.021,1.318,1.021,2.376c0,0.77-0.203,1.418-0.609,1.947c-0.405,0.528-1.021,0.908-1.849,1.139l3.117,5.229h-0.958
			l-2.96-5.002H2471.349z M2471.349,93.939h2.19c0.969,0,1.72-0.216,2.254-0.647s0.801-1.069,0.801-1.912
			c0-0.874-0.262-1.511-0.785-1.908s-1.377-0.597-2.56-0.597h-1.9V93.939z"/>
		<path fill="#FFFFFF" d="M2485.154,99.632l-4.28-10.601h-0.063c0.042,0.648,0.063,1.313,0.063,1.994v8.606h-0.77v-11.48h1.241
			l4.067,10.099h0.047l4.068-10.099h1.209v11.48h-0.809v-8.7c0-0.607,0.031-1.235,0.094-1.885h-0.063l-4.296,10.585H2485.154z"/>
		<path fill="#FFFFFF" d="M2499.508,95.58h-4.664l-1.602,4.052h-0.888l4.617-11.527h0.511l4.522,11.527h-0.902L2499.508,95.58z
			 M2495.134,94.857h4.107l-1.563-4.138c-0.131-0.325-0.288-0.775-0.472-1.352c-0.141,0.503-0.296,0.958-0.463,1.367
			L2495.134,94.857z"/>
	</g>
	<g>
		<g>
			<path fill="#FFFFFF" d="M2486.436,39.531l-6.368-3.229v-7.175l11.296-5.817c-2.48-2.132-5.706-3.421-9.233-3.421
				c-7.826,0-14.171,6.345-14.171,14.171s6.344,14.171,14.171,14.171s14.171-6.345,14.171-14.171c0-0.041-0.001-0.082-0.001-0.124
				L2486.436,39.531z"/>
		</g>
		<g>
			<path fill="#FFFFFF" d="M2470.292,45.181c-2.153-2.153-3.139-4.933-3.139-4.933s-20.09,20.09-21.615,21.615
				c-1.525,1.525-1.256,4.036-0.09,5.202c1.166,1.166,3.274,3.363,4.215,4.305c0.942,0.942,3.677,0.718,5.023-0.628
				c1.345-1.345,21.481-21.481,21.481-21.481S2472.444,47.334,2470.292,45.181z M2452.174,65.81c-0.792,0-1.435-0.642-1.435-1.435
				c0-0.793,0.643-1.435,1.435-1.435s1.435,0.642,1.435,1.435C2453.609,65.167,2452.967,65.81,2452.174,65.81z"/>
		</g>
	</g>
</g>
</svg>
