<svg version="1.1" id="Capa_1" xmlns="http://www.w3.org/2000/svg" xmlns:xlink="http://www.w3.org/1999/xlink" x="0px" y="0px"
	 viewBox="0 0 2600.107 121" enable-background="new 0 0 2600.107 121" xml:space="preserve">
<g>
	<polygon fill="#58595B" points="65.253,121 2602.25,121 2602.25,0 65.253,0 0.253,60.501 	"/>
	<g>
		<path fill="#FFFFFF" d="M72.169,93.876c0,1.821-0.456,3.263-1.366,4.323c-0.911,1.06-2.168,1.59-3.77,1.59
			c-1.597,0-2.851-0.53-3.762-1.59c-0.91-1.061-1.366-2.507-1.366-4.339c0-1.827,0.46-3.266,1.378-4.315
			c0.919-1.049,2.174-1.574,3.766-1.574c1.602,0,2.855,0.527,3.762,1.582C71.716,90.609,72.169,92.049,72.169,93.876z
			 M62.777,93.876c0,1.644,0.366,2.915,1.1,3.813c0.732,0.897,1.784,1.347,3.156,1.347c1.382,0,2.438-0.445,3.169-1.335
			c0.729-0.89,1.095-2.165,1.095-3.824c0-1.654-0.365-2.923-1.095-3.805c-0.73-0.882-1.781-1.323-3.153-1.323
			c-1.366,0-2.42,0.445-3.16,1.335C63.147,90.974,62.777,92.238,62.777,93.876z"/>
		<path fill="#FFFFFF" d="M77.32,99.632h-0.809V88.906h-3.73v-0.754h8.27v0.754h-3.73V99.632z"/>
		<path fill="#FFFFFF" d="M83.556,94.63v5.002h-0.802v-11.48h2.733c1.424,0,2.476,0.264,3.156,0.789
			c0.681,0.526,1.021,1.318,1.021,2.376c0,0.77-0.203,1.418-0.609,1.947c-0.405,0.528-1.021,0.908-1.849,1.139l3.117,5.229h-0.958
			l-2.96-5.002H83.556z M83.556,93.939h2.19c0.969,0,1.72-0.216,2.254-0.647s0.801-1.069,0.801-1.912
			c0-0.874-0.262-1.511-0.785-1.908s-1.377-0.597-2.56-0.597h-1.9V93.939z"/>
		<path fill="#FFFFFF" d="M101.961,93.876c0,1.821-0.456,3.263-1.366,4.323c-0.911,1.06-2.168,1.59-3.77,1.59
			c-1.597,0-2.851-0.53-3.762-1.59c-0.91-1.061-1.366-2.507-1.366-4.339c0-1.827,0.46-3.266,1.378-4.315
			c0.919-1.049,2.174-1.574,3.766-1.574c1.602,0,2.855,0.527,3.762,1.582C101.508,90.609,101.961,92.049,101.961,93.876z
			 M92.569,93.876c0,1.644,0.366,2.915,1.1,3.813c0.732,0.897,1.784,1.347,3.156,1.347c1.382,0,2.438-0.445,3.169-1.335
			c0.729-0.89,1.095-2.165,1.095-3.824c0-1.654-0.365-2.923-1.095-3.805c-0.73-0.882-1.781-1.323-3.153-1.323
			c-1.366,0-2.42,0.445-3.16,1.335C92.939,90.974,92.569,92.238,92.569,93.876z"/>
		<path fill="#FFFFFF" d="M110.936,96.672c0,0.958-0.353,1.717-1.057,2.276c-0.704,0.561-1.64,0.841-2.808,0.841
			c-1.402,0-2.479-0.154-3.227-0.464v-0.801c0.826,0.351,1.882,0.526,3.164,0.526c0.942,0,1.689-0.216,2.242-0.647
			c0.552-0.433,0.828-0.999,0.828-1.7c0-0.435-0.092-0.795-0.274-1.08c-0.184-0.285-0.482-0.546-0.896-0.781
			c-0.414-0.235-1.021-0.489-1.822-0.762c-1.172-0.403-1.982-0.839-2.43-1.308c-0.448-0.468-0.672-1.093-0.672-1.873
			c0-0.858,0.337-1.559,1.01-2.1c0.672-0.542,1.537-0.813,2.595-0.813c1.078,0,2.092,0.204,3.039,0.612l-0.291,0.691
			c-0.952-0.397-1.863-0.597-2.732-0.597c-0.848,0-1.523,0.196-2.025,0.589c-0.503,0.393-0.754,0.927-0.754,1.602
			c0,0.425,0.077,0.772,0.231,1.045s0.407,0.517,0.758,0.734c0.351,0.217,0.952,0.478,1.806,0.781
			c0.896,0.309,1.568,0.608,2.019,0.898c0.45,0.291,0.778,0.621,0.985,0.99S110.936,96.149,110.936,96.672z"/>
		<path fill="#FFFFFF" d="M123.878,96.672c0,0.958-0.353,1.717-1.057,2.276c-0.704,0.561-1.64,0.841-2.808,0.841
			c-1.402,0-2.479-0.154-3.227-0.464v-0.801c0.826,0.351,1.882,0.526,3.164,0.526c0.942,0,1.689-0.216,2.242-0.647
			c0.552-0.433,0.828-0.999,0.828-1.7c0-0.435-0.092-0.795-0.274-1.08c-0.184-0.285-0.482-0.546-0.896-0.781
			c-0.414-0.235-1.021-0.489-1.822-0.762c-1.172-0.403-1.982-0.839-2.43-1.308c-0.448-0.468-0.672-1.093-0.672-1.873
			c0-0.858,0.337-1.559,1.01-2.1c0.672-0.542,1.537-0.813,2.595-0.813c1.078,0,2.092,0.204,3.039,0.612l-0.291,0.691
			c-0.952-0.397-1.863-0.597-2.732-0.597c-0.848,0-1.523,0.196-2.025,0.589c-0.503,0.393-0.754,0.927-0.754,1.602
			c0,0.425,0.077,0.772,0.231,1.045s0.407,0.517,0.758,0.734c0.351,0.217,0.952,0.478,1.806,0.781
			c0.896,0.309,1.568,0.608,2.019,0.898c0.45,0.291,0.778,0.621,0.985,0.99S123.878,96.149,123.878,96.672z"/>
		<path fill="#FFFFFF" d="M132.578,99.632h-6.274v-11.48h6.274v0.738h-5.473v4.343h5.167v0.737h-5.167v4.924h5.473V99.632z"/>
		<path fill="#FFFFFF" d="M135.978,94.63v5.002h-0.802v-11.48h2.733c1.424,0,2.476,0.264,3.156,0.789
			c0.681,0.526,1.021,1.318,1.021,2.376c0,0.77-0.203,1.418-0.609,1.947c-0.405,0.528-1.021,0.908-1.849,1.139l3.117,5.229h-0.958
			l-2.96-5.002H135.978z M135.978,93.939h2.19c0.969,0,1.72-0.216,2.254-0.647s0.801-1.069,0.801-1.912
			c0-0.874-0.262-1.511-0.785-1.908s-1.377-0.597-2.56-0.597h-1.9V93.939z"/>
		<path fill="#FFFFFF" d="M151.518,88.152h0.871l-4.295,11.48h-0.707l-4.279-11.48h0.855l2.891,7.813
			c0.439,1.178,0.735,2.063,0.887,2.654c0.104-0.393,0.312-1.003,0.62-1.83L151.518,88.152z"/>
		<path fill="#FFFFFF" d="M154.015,99.632v-11.48h0.802v11.48H154.015z"/>
		<path fill="#FFFFFF" d="M162.967,88.709c-1.439,0-2.573,0.461-3.4,1.382c-0.827,0.922-1.24,2.184-1.24,3.785
			c0,1.639,0.39,2.911,1.17,3.816s1.895,1.358,3.345,1.358c0.964,0,1.849-0.123,2.654-0.369v0.707c-0.759,0.267-1.706,0.4-2.843,0.4
			c-1.612,0-2.882-0.521-3.808-1.563c-0.927-1.042-1.391-2.497-1.391-4.366c0-1.167,0.222-2.196,0.664-3.086
			s1.078-1.577,1.908-2.062c0.829-0.484,1.794-0.727,2.894-0.727c1.12,0,2.122,0.21,3.007,0.629l-0.321,0.722
			C164.767,88.919,163.888,88.709,162.967,88.709z"/>
		<path fill="#FFFFFF" d="M168.055,99.632v-11.48h0.802v11.48H168.055z"/>
		<path fill="#FFFFFF" d="M181.758,93.876c0,1.821-0.456,3.263-1.366,4.323c-0.911,1.06-2.168,1.59-3.77,1.59
			c-1.597,0-2.851-0.53-3.762-1.59c-0.91-1.061-1.366-2.507-1.366-4.339c0-1.827,0.46-3.266,1.378-4.315
			c0.919-1.049,2.174-1.574,3.766-1.574c1.602,0,2.855,0.527,3.762,1.582C181.305,90.609,181.758,92.049,181.758,93.876z
			 M172.366,93.876c0,1.644,0.366,2.915,1.1,3.813c0.732,0.897,1.784,1.347,3.156,1.347c1.382,0,2.438-0.445,3.169-1.335
			c0.729-0.89,1.095-2.165,1.095-3.824c0-1.654-0.365-2.923-1.095-3.805c-0.73-0.882-1.781-1.323-3.153-1.323
			c-1.366,0-2.42,0.445-3.16,1.335C172.736,90.974,172.366,92.238,172.366,93.876z"/>
		<path fill="#FFFFFF" d="M190.733,96.672c0,0.958-0.353,1.717-1.057,2.276c-0.704,0.561-1.64,0.841-2.808,0.841
			c-1.402,0-2.479-0.154-3.227-0.464v-0.801c0.826,0.351,1.882,0.526,3.164,0.526c0.942,0,1.689-0.216,2.242-0.647
			c0.552-0.433,0.828-0.999,0.828-1.7c0-0.435-0.092-0.795-0.274-1.08c-0.184-0.285-0.482-0.546-0.896-0.781
			c-0.414-0.235-1.021-0.489-1.822-0.762c-1.172-0.403-1.982-0.839-2.43-1.308c-0.448-0.468-0.672-1.093-0.672-1.873
			c0-0.858,0.337-1.559,1.01-2.1c0.672-0.542,1.537-0.813,2.595-0.813c1.078,0,2.092,0.204,3.039,0.612l-0.291,0.691
			c-0.952-0.397-1.863-0.597-2.732-0.597c-0.848,0-1.523,0.196-2.025,0.589c-0.503,0.393-0.754,0.927-0.754,1.602
			c0,0.425,0.077,0.772,0.231,1.045s0.407,0.517,0.758,0.734c0.351,0.217,0.952,0.478,1.806,0.781
			c0.896,0.309,1.568,0.608,2.019,0.898c0.45,0.291,0.778,0.621,0.985,0.99S190.733,96.149,190.733,96.672z"/>
	</g>
	<g>
		<path fill="#FFFFFF" d="M152.115,23.177c0,0-5.485,5.739-13.081,6.836c-7.595,1.097-16.035-2.701-27.85,7.258
			c-11.815,9.958-5.823,21.351-5.823,21.351c-2.701,1.35-6.667,6.836-6.667,6.836l4.473,4.642c0.506-1.097,6.329-6.667,6.329-6.667
			s4.135,4.135,15.95,4.304c15.02,0.215,26.415-12.068,30.466-23.292C159.964,33.22,152.115,23.177,152.115,23.177z M138.753,45.231
			c-0.062-0.007-6.382-0.589-12.171,1.649c-5.774,2.233-12.197,10.045-12.262,10.124c-0.391,0.479-0.959,0.727-1.533,0.727
			c-0.44,0-0.882-0.146-1.25-0.446c-0.846-0.691-0.972-1.936-0.281-2.783c0.289-0.354,7.16-8.706,13.9-11.311
			c6.693-2.588,13.696-1.924,13.99-1.896c1.087,0.109,1.88,1.078,1.771,2.165C140.809,44.546,139.837,45.335,138.753,45.231z"/>
	</g>
</g>
</svg>
