<?xml version="1.0" encoding="utf-8"?>
<!-- Generator: Adobe Illustrator 17.0.0, SVG Export Plug-In . SVG Version: 6.00 Build 0)  -->
<!DOCTYPE svg PUBLIC "-//W3C//DTD SVG 1.1//EN" "http://www.w3.org/Graphics/SVG/1.1/DTD/svg11.dtd">
<svg version="1.1" id="Capa_1" xmlns="http://www.w3.org/2000/svg" xmlns:xlink="http://www.w3.org/1999/xlink" x="0px" y="0px"
	  viewBox="0 0 321.465 55.417" enable-background="new 0 0 321.465 55.417"
	 xml:space="preserve">
<g>
	<g>
		<defs>
			<rect id="SVGID_17_" x="-321.494" y="125.143" width="960" height="40"/>
		</defs>
		<clipPath id="SVGID_2_">
			<use xlink:href="#SVGID_17_"  overflow="visible"/>
		</clipPath>
		<rect x="-326.637" y="-167.552" clip-path="url(#SVGID_2_)" fill="#58595B" width="969.002" height="548"/>
	</g>
</g>
<g>
	<g>
		<g>
			<path fill="#FFFFFF" d="M80.484,52.224c2.803,0,5.523,0,8.366,0c0-14.166,0-28.214,0-42.313c-2.845,0-5.622,0-8.366,0
				C80.484,24.072,80.484,38.122,80.484,52.224z"/>
			<path fill="#FFFFFF" d="M0,35.266c2.837,0,5.586,0,8.366,0c0-11.808,0-23.546,0-35.266C5.508,0,2.76,0,0,0
				C0,11.8,0,23.51,0,35.266z"/>
			<path fill="#FFFFFF" d="M22.61,35.245c2.856,0,5.637,0,8.447,0c0-8.504,0-16.917,0-25.388c-2.827,0-5.584,0-8.447,0
				C22.61,18.376,22.61,26.791,22.61,35.245z"/>
			<path fill="#FFFFFF" d="M103.074,35.275c2.813,0,5.53,0,8.323,0c0-8.561,0-16.981,0-25.379c-2.835,0-5.583,0-8.323,0
				C103.074,18.41,103.074,26.827,103.074,35.275z"/>
			<path fill="#FFFFFF" d="M93.181,35.253c2.855,0,5.605,0,8.412,0c0-8.461,0-16.839,0-25.379c-2.848,0-5.631,0-8.412,0
				C93.181,18.388,93.181,26.827,93.181,35.253z"/>
			<path fill="#FFFFFF" d="M67.739,35.251c2.854,0,5.639,0,8.445,0c0-8.496,0-16.909,0-25.386c-2.83,0-5.585,0-8.445,0
				C67.739,18.379,67.739,26.79,67.739,35.251z"/>
			<path fill="#FFFFFF" d="M45.202,35.272c2.835,0,5.589,0,8.436,0c0-8.534,0-16.922,0-25.383c-2.842,0-5.623,0-8.436,0
				C45.202,18.391,45.202,26.807,45.202,35.272z"/>
			<path fill="#FFFFFF" d="M9.955,35.255c2.805,0,5.545,0,8.359,0c0-8.487,0-16.894,0-25.377c-2.786,0-5.501,0-8.359,0
				C9.955,18.374,9.955,26.782,9.955,35.255z"/>
			<path fill="#FFFFFF" d="M55.01,25.28c2.852,0,5.635,0,8.469,0c0-5.144,0-10.217,0-15.374c-2.901,0-5.682,0-8.469,0
				C55.01,15.082,55.01,20.153,55.01,25.28z"/>
			<path fill="#FFFFFF" d="M76.142,0.002c-2.829,0-5.57,0-8.323,0c0,2.838,0,5.584,0,8.378c2.806,0,5.52,0,8.323,0
				C76.142,5.499,76.142,2.755,76.142,0.002z"/>
			<path fill="#FFFFFF" d="M88.82,0.002c-2.848,0-5.597,0-8.326,0c0,2.845,0,5.594,0,8.372c2.81,0,5.528,0,8.326,0
				C88.82,5.485,88.82,2.739,88.82,0.002z"/>
			<path fill="#FFFFFF" d="M54.992,35.273c2.894,0,5.644,0,8.468,0c0-2.841,0-5.619,0-8.435c-2.856,0-5.637,0-8.468,0
				C54.992,29.666,54.992,32.415,54.992,35.273z"/>
			<path fill="#FFFFFF" d="M32.49,18.28c2.856,0,5.612,0,8.42,0c0-2.827,0-5.577,0-8.397c-2.832,0-5.614,0-8.42,0
				C32.49,12.747,32.49,15.528,32.49,18.28z"/>
		</g>
		<g>
			<path fill="#FFFFFF" d="M103.111,44.411c0,0.619-0.195,1.142-0.584,1.565s-0.913,0.694-1.569,0.813v0.041
				c0.802,0.1,1.413,0.355,1.832,0.766s0.629,0.961,0.629,1.654c0,0.934-0.318,1.657-0.954,2.17s-1.551,0.77-2.745,0.77
				c-1.016,0-1.903-0.189-2.659-0.567v-0.677c0.383,0.2,0.813,0.357,1.289,0.472c0.476,0.113,0.924,0.171,1.343,0.171
				c1.007,0,1.764-0.204,2.27-0.612c0.506-0.407,0.759-0.983,0.759-1.726c0-0.661-0.259-1.169-0.776-1.524s-1.277-0.533-2.28-0.533
				h-1.08v-0.656h1.094c0.83,0,1.487-0.197,1.972-0.592c0.485-0.394,0.728-0.929,0.728-1.603c0-0.557-0.197-1.002-0.591-1.337
				s-0.91-0.502-1.548-0.502c-0.497,0-0.95,0.069-1.36,0.208c-0.41,0.14-0.871,0.377-1.381,0.715l-0.335-0.458
				c0.387-0.324,0.854-0.58,1.401-0.77c0.547-0.188,1.101-0.283,1.661-0.283c0.92,0,1.631,0.218,2.133,0.652
				C102.86,43.004,103.111,43.618,103.111,44.411z"/>
			<path fill="#FFFFFF" d="M111.622,47.03c0,1.754-0.268,3.053-0.803,3.896c-0.536,0.843-1.346,1.265-2.43,1.265
				c-1.043,0-1.836-0.435-2.379-1.303s-0.813-2.154-0.813-3.858c0-1.741,0.263-3.031,0.79-3.869
				c0.526-0.839,1.327-1.258,2.403-1.258c1.053,0,1.855,0.434,2.406,1.302S111.622,45.348,111.622,47.03z M105.934,47.03
				c0,1.549,0.203,2.694,0.608,3.435c0.406,0.741,1.021,1.111,1.846,1.111c0.861,0,1.489-0.383,1.883-1.148s0.591-1.898,0.591-3.397
				c0-1.477-0.197-2.598-0.591-3.363s-1.022-1.148-1.883-1.148s-1.486,0.383-1.873,1.148S105.934,45.553,105.934,47.03z"/>
			<path fill="#FFFFFF" d="M121.794,52.054l-0.171-1.176h-0.055c-0.374,0.479-0.758,0.816-1.152,1.015s-0.86,0.298-1.398,0.298
				c-0.729,0-1.296-0.188-1.702-0.561c-0.406-0.374-0.608-0.892-0.608-1.552c0-0.725,0.302-1.288,0.906-1.688
				c0.604-0.401,1.478-0.613,2.622-0.636l1.415-0.041v-0.492c0-0.707-0.144-1.24-0.431-1.6c-0.287-0.36-0.75-0.54-1.388-0.54
				c-0.688,0-1.401,0.191-2.14,0.574l-0.253-0.588c0.816-0.383,1.623-0.574,2.42-0.574c0.816,0,1.425,0.212,1.829,0.636
				s0.605,1.084,0.605,1.982v4.942H121.794z M119.059,51.575c0.793,0,1.418-0.227,1.876-0.681c0.458-0.453,0.687-1.083,0.687-1.89
				v-0.731l-1.299,0.055c-1.043,0.05-1.788,0.213-2.232,0.488c-0.444,0.276-0.667,0.705-0.667,1.289
				c0,0.465,0.143,0.826,0.427,1.083C118.137,51.447,118.54,51.575,119.059,51.575z"/>
			<path fill="#FFFFFF" d="M129.88,52.054v-4.819c0-0.748-0.157-1.291-0.472-1.631c-0.314-0.339-0.802-0.509-1.463-0.509
				c-0.889,0-1.539,0.225-1.952,0.673c-0.413,0.449-0.619,1.177-0.619,2.185v4.102h-0.677v-7.431h0.574l0.13,1.019h0.041
				c0.483-0.775,1.342-1.162,2.577-1.162c1.686,0,2.529,0.904,2.529,2.714v4.86H129.88z M128.78,43.557
				c-0.164,0-0.335-0.042-0.513-0.127c-0.178-0.084-0.408-0.247-0.69-0.488c-0.146-0.119-0.288-0.224-0.427-0.314
				c-0.139-0.092-0.281-0.137-0.427-0.137c-0.205,0-0.376,0.078-0.513,0.235s-0.246,0.435-0.328,0.831h-0.499
				c0.045-0.506,0.189-0.903,0.431-1.193c0.242-0.289,0.554-0.434,0.937-0.434c0.219,0,0.419,0.057,0.602,0.171
				c0.182,0.113,0.369,0.248,0.561,0.403c0.155,0.127,0.305,0.241,0.451,0.342c0.146,0.1,0.285,0.15,0.417,0.15
				c0.209,0,0.385-0.083,0.526-0.25c0.141-0.166,0.25-0.438,0.328-0.816h0.52c-0.073,0.528-0.23,0.932-0.472,1.21
				C129.44,43.417,129.14,43.557,128.78,43.557z"/>
			<path fill="#FFFFFF" d="M139.102,48.328c0,1.212-0.293,2.159-0.881,2.84c-0.588,0.682-1.399,1.022-2.434,1.022
				c-0.652,0-1.227-0.157-1.723-0.472c-0.497-0.314-0.878-0.766-1.143-1.354c-0.264-0.588-0.396-1.268-0.396-2.037
				c0-1.213,0.295-2.157,0.883-2.834s1.395-1.015,2.42-1.015c1.021,0,1.821,0.343,2.402,1.028
				C138.812,46.195,139.102,47.134,139.102,48.328z M133.236,48.328c0,1.021,0.225,1.817,0.674,2.389
				c0.449,0.572,1.084,0.858,1.904,0.858s1.455-0.286,1.903-0.858c0.448-0.571,0.673-1.368,0.673-2.389
				c0-1.025-0.227-1.821-0.68-2.386c-0.453-0.565-1.09-0.848-1.91-0.848s-1.453,0.281-1.897,0.844
				C133.459,46.502,133.236,47.298,133.236,48.328z"/>
			<path fill="#FFFFFF" d="M145.768,50.119c0,0.665-0.254,1.177-0.76,1.534c-0.506,0.358-1.223,0.537-2.152,0.537
				c-0.994,0-1.782-0.153-2.365-0.458v-0.731c0.747,0.373,1.535,0.561,2.365,0.561c0.733,0,1.291-0.122,1.671-0.366
				c0.38-0.243,0.571-0.568,0.571-0.974c0-0.374-0.152-0.688-0.455-0.943c-0.303-0.256-0.801-0.506-1.494-0.752
				c-0.742-0.27-1.264-0.5-1.564-0.694c-0.301-0.193-0.527-0.412-0.681-0.656c-0.153-0.243-0.229-0.541-0.229-0.892
				c0-0.557,0.234-0.996,0.701-1.319c0.467-0.324,1.12-0.485,1.959-0.485c0.802,0,1.563,0.15,2.283,0.451l-0.254,0.615
				c-0.729-0.301-1.405-0.451-2.029-0.451c-0.606,0-1.088,0.1-1.443,0.301c-0.355,0.2-0.533,0.479-0.533,0.834
				c0,0.387,0.139,0.697,0.414,0.93s0.814,0.492,1.617,0.779c0.67,0.241,1.157,0.459,1.463,0.652
				c0.305,0.194,0.533,0.414,0.687,0.66S145.768,49.786,145.768,50.119z"/>
			<path fill="#FFFFFF" d="M154.039,44.48c0.537,0,1.002,0.098,1.395,0.294c0.392,0.195,0.742,0.53,1.053,1.005h0.041
				c-0.027-0.574-0.041-1.138-0.041-1.688v-2.673h0.67v10.637h-0.445l-0.17-1.135h-0.055c-0.565,0.848-1.377,1.271-2.434,1.271
				c-1.025,0-1.81-0.319-2.352-0.957c-0.543-0.639-0.814-1.568-0.814-2.789c0-1.285,0.27-2.268,0.807-2.946
				C152.232,44.819,153.014,44.48,154.039,44.48z M154.039,45.095c-0.812,0-1.422,0.284-1.829,0.854
				c-0.407,0.569-0.612,1.396-0.612,2.481c0,2.105,0.818,3.158,2.455,3.158c0.838,0,1.453-0.244,1.846-0.731
				c0.392-0.488,0.588-1.292,0.588-2.413v-0.116c0-1.148-0.193-1.975-0.578-2.479C155.523,45.347,154.9,45.095,154.039,45.095z"/>
			<path fill="#FFFFFF" d="M162.652,52.191c-1.08,0-1.922-0.333-2.526-0.998c-0.604-0.666-0.905-1.598-0.905-2.796
				c0-1.186,0.291-2.134,0.875-2.848c0.583-0.713,1.369-1.069,2.357-1.069c0.875,0,1.566,0.305,2.072,0.916
				c0.506,0.61,0.758,1.439,0.758,2.488v0.547h-5.352c0.009,1.021,0.246,1.8,0.714,2.338c0.468,0.537,1.136,0.807,2.007,0.807
				c0.424,0,0.796-0.03,1.117-0.089c0.321-0.06,0.729-0.188,1.221-0.383v0.615c-0.42,0.182-0.807,0.307-1.162,0.372
				C163.473,52.158,163.08,52.191,162.652,52.191z M162.453,45.081c-0.715,0-1.289,0.235-1.723,0.707
				c-0.433,0.472-0.686,1.152-0.758,2.041h4.594c0-0.861-0.188-1.535-0.561-2.021C163.632,45.324,163.114,45.081,162.453,45.081z"/>
			<path fill="#FFFFFF" d="M173.973,52.191c-1.08,0-1.922-0.333-2.526-0.998c-0.604-0.666-0.905-1.598-0.905-2.796
				c0-1.186,0.291-2.134,0.875-2.848c0.583-0.713,1.369-1.069,2.357-1.069c0.875,0,1.566,0.305,2.072,0.916
				c0.506,0.61,0.758,1.439,0.758,2.488v0.547h-5.352c0.009,1.021,0.246,1.8,0.714,2.338c0.468,0.537,1.136,0.807,2.007,0.807
				c0.424,0,0.796-0.03,1.117-0.089c0.321-0.06,0.729-0.188,1.221-0.383v0.615c-0.42,0.182-0.807,0.307-1.162,0.372
				C174.793,52.158,174.4,52.191,173.973,52.191z M173.773,45.081c-0.715,0-1.289,0.235-1.723,0.707
				c-0.433,0.472-0.686,1.152-0.758,2.041h4.594c0-0.861-0.188-1.535-0.561-2.021C174.952,45.324,174.435,45.081,173.773,45.081z"/>
			<path fill="#FFFFFF" d="M180.199,48.233l-2.59-3.609h0.779l2.215,3.131l2.193-3.131h0.746l-2.551,3.609l2.734,3.821h-0.785
				l-2.338-3.315l-2.352,3.315h-0.746L180.199,48.233z"/>
			<path fill="#FFFFFF" d="M188.525,52.191c-1.144,0-1.978-0.429-2.502-1.285h-0.047l0.02,0.574
				c0.019,0.337,0.027,0.706,0.027,1.107v2.83h-0.676V44.623h0.574l0.129,1.06h0.041c0.511-0.803,1.326-1.203,2.447-1.203
				c1.003,0,1.768,0.329,2.294,0.987c0.526,0.659,0.79,1.617,0.79,2.875c0,1.221-0.277,2.168-0.831,2.84
				C190.238,51.855,189.482,52.191,188.525,52.191z M188.512,51.589c0.762,0,1.351-0.283,1.768-0.848
				c0.417-0.565,0.625-1.356,0.625-2.372c0-2.184-0.788-3.274-2.365-3.274c-0.865,0-1.501,0.238-1.906,0.714
				c-0.406,0.477-0.609,1.252-0.609,2.328v0.219c0,1.162,0.195,1.991,0.585,2.488C186.998,51.34,187.633,51.589,188.512,51.589z"/>
			<path fill="#FFFFFF" d="M196.682,52.191c-1.08,0-1.922-0.333-2.526-0.998c-0.604-0.666-0.905-1.598-0.905-2.796
				c0-1.186,0.291-2.134,0.875-2.848c0.583-0.713,1.369-1.069,2.357-1.069c0.875,0,1.566,0.305,2.072,0.916
				c0.506,0.61,0.758,1.439,0.758,2.488v0.547h-5.352c0.009,1.021,0.246,1.8,0.714,2.338c0.468,0.537,1.136,0.807,2.007,0.807
				c0.424,0,0.796-0.03,1.117-0.089c0.321-0.06,0.729-0.188,1.221-0.383v0.615c-0.42,0.182-0.807,0.307-1.162,0.372
				C197.502,52.158,197.109,52.191,196.682,52.191z M196.482,45.081c-0.715,0-1.289,0.235-1.723,0.707
				c-0.433,0.472-0.686,1.152-0.758,2.041h4.594c0-0.861-0.188-1.535-0.561-2.021C197.661,45.324,197.144,45.081,196.482,45.081z"/>
			<path fill="#FFFFFF" d="M204.289,44.48c0.314,0,0.652,0.031,1.012,0.096l-0.129,0.649c-0.311-0.078-0.632-0.116-0.965-0.116
				c-0.633,0-1.152,0.269-1.559,0.807c-0.405,0.537-0.607,1.217-0.607,2.037v4.102h-0.678v-7.431h0.574l0.068,1.34h0.049
				c0.305-0.547,0.631-0.931,0.977-1.152C203.378,44.59,203.797,44.48,204.289,44.48z"/>
			<path fill="#FFFFFF" d="M206.717,42.559c0-0.438,0.143-0.656,0.43-0.656c0.142,0,0.252,0.057,0.332,0.171
				c0.08,0.113,0.119,0.275,0.119,0.485c0,0.205-0.039,0.366-0.119,0.485c-0.08,0.118-0.19,0.178-0.332,0.178
				C206.859,43.222,206.717,43,206.717,42.559z M207.488,52.054h-0.676v-7.431h0.676V52.054z"/>
			<path fill="#FFFFFF" d="M212.979,52.191c-1.08,0-1.922-0.333-2.527-0.998c-0.604-0.666-0.904-1.598-0.904-2.796
				c0-1.186,0.291-2.134,0.875-2.848c0.582-0.713,1.369-1.069,2.357-1.069c0.875,0,1.566,0.305,2.072,0.916
				c0.506,0.61,0.758,1.439,0.758,2.488v0.547h-5.352c0.008,1.021,0.246,1.8,0.713,2.338c0.469,0.537,1.137,0.807,2.008,0.807
				c0.424,0,0.795-0.03,1.117-0.089c0.32-0.06,0.729-0.188,1.221-0.383v0.615c-0.42,0.182-0.807,0.307-1.162,0.372
				C213.799,52.158,213.406,52.191,212.979,52.191z M212.779,45.081c-0.715,0-1.289,0.235-1.723,0.707
				c-0.432,0.472-0.686,1.152-0.758,2.041h4.594c0-0.861-0.188-1.535-0.561-2.021C213.957,45.324,213.441,45.081,212.779,45.081z"/>
			<path fill="#FFFFFF" d="M222.842,52.054v-4.819c0-0.748-0.156-1.291-0.471-1.631c-0.314-0.339-0.803-0.509-1.463-0.509
				c-0.889,0-1.539,0.225-1.953,0.673c-0.412,0.449-0.617,1.177-0.617,2.185v4.102h-0.678v-7.431h0.574l0.131,1.019h0.041
				c0.482-0.775,1.342-1.162,2.576-1.162c1.688,0,2.529,0.904,2.529,2.714v4.86H222.842z"/>
			<path fill="#FFFFFF" d="M228.885,52.191c-1.061,0-1.893-0.335-2.494-1.005s-0.902-1.604-0.902-2.803
				c0-1.23,0.313-2.188,0.936-2.875c0.625-0.686,1.479-1.028,2.564-1.028c0.643,0,1.258,0.111,1.846,0.335l-0.186,0.602
				c-0.643-0.215-1.201-0.321-1.674-0.321c-0.912,0-1.602,0.281-2.072,0.844c-0.469,0.563-0.703,1.373-0.703,2.431
				c0,1.002,0.234,1.787,0.703,2.354c0.471,0.567,1.127,0.852,1.969,0.852c0.676,0,1.301-0.121,1.881-0.362v0.629
				C230.277,52.074,229.656,52.191,228.885,52.191z"/>
			<path fill="#FFFFFF" d="M232.475,42.559c0-0.438,0.143-0.656,0.43-0.656c0.143,0,0.252,0.057,0.332,0.171
				c0.08,0.113,0.119,0.275,0.119,0.485c0,0.205-0.039,0.366-0.119,0.485c-0.08,0.118-0.189,0.178-0.332,0.178
				C232.617,43.222,232.475,43,232.475,42.559z M233.246,52.054h-0.676v-7.431h0.676V52.054z"/>
			<path fill="#FFFFFF" d="M240.246,52.054l-0.17-1.176h-0.055c-0.375,0.479-0.758,0.816-1.152,1.015s-0.859,0.298-1.398,0.298
				c-0.729,0-1.297-0.188-1.701-0.561c-0.406-0.374-0.609-0.892-0.609-1.552c0-0.725,0.303-1.288,0.906-1.688
				c0.604-0.401,1.479-0.613,2.621-0.636l1.416-0.041v-0.492c0-0.707-0.145-1.24-0.432-1.6c-0.287-0.36-0.75-0.54-1.387-0.54
				c-0.689,0-1.402,0.191-2.141,0.574l-0.252-0.588c0.814-0.383,1.621-0.574,2.42-0.574c0.814,0,1.424,0.212,1.828,0.636
				c0.402,0.424,0.605,1.084,0.605,1.982v4.942H240.246z M237.512,51.575c0.793,0,1.418-0.227,1.877-0.681
				c0.457-0.453,0.688-1.083,0.688-1.89v-0.731l-1.299,0.055c-1.045,0.05-1.789,0.213-2.232,0.488
				c-0.445,0.276-0.666,0.705-0.666,1.289c0,0.465,0.143,0.826,0.426,1.083C236.59,51.447,236.992,51.575,237.512,51.575z"/>
			<path fill="#FFFFFF" d="M251.301,52.054l-0.172-1.176h-0.055c-0.373,0.479-0.758,0.816-1.15,1.015
				c-0.395,0.198-0.861,0.298-1.398,0.298c-0.73,0-1.297-0.188-1.703-0.561c-0.404-0.374-0.607-0.892-0.607-1.552
				c0-0.725,0.301-1.288,0.906-1.688c0.604-0.401,1.477-0.613,2.621-0.636l1.414-0.041v-0.492c0-0.707-0.143-1.24-0.43-1.6
				c-0.287-0.36-0.75-0.54-1.389-0.54c-0.688,0-1.4,0.191-2.139,0.574l-0.254-0.588c0.816-0.383,1.623-0.574,2.42-0.574
				c0.816,0,1.426,0.212,1.83,0.636c0.402,0.424,0.604,1.084,0.604,1.982v4.942H251.301z M248.566,51.575
				c0.793,0,1.418-0.227,1.877-0.681c0.457-0.453,0.686-1.083,0.686-1.89v-0.731l-1.299,0.055c-1.043,0.05-1.787,0.213-2.23,0.488
				c-0.445,0.276-0.668,0.705-0.668,1.289c0,0.465,0.143,0.826,0.428,1.083C247.645,51.447,248.047,51.575,248.566,51.575z"/>
			<path fill="#FFFFFF" d="M262.449,50.119c0,0.665-0.252,1.177-0.758,1.534c-0.506,0.358-1.225,0.537-2.154,0.537
				c-0.992,0-1.781-0.153-2.365-0.458v-0.731c0.748,0.373,1.537,0.561,2.365,0.561c0.734,0,1.291-0.122,1.672-0.366
				c0.381-0.243,0.57-0.568,0.57-0.974c0-0.374-0.15-0.688-0.455-0.943c-0.303-0.256-0.801-0.506-1.492-0.752
				c-0.744-0.27-1.266-0.5-1.566-0.694c-0.301-0.193-0.527-0.412-0.68-0.656c-0.152-0.243-0.229-0.541-0.229-0.892
				c0-0.557,0.232-0.996,0.699-1.319c0.469-0.324,1.121-0.485,1.959-0.485c0.803,0,1.564,0.15,2.283,0.451l-0.252,0.615
				c-0.73-0.301-1.406-0.451-2.031-0.451c-0.605,0-1.086,0.1-1.441,0.301c-0.355,0.2-0.533,0.479-0.533,0.834
				c0,0.387,0.137,0.697,0.412,0.93c0.277,0.232,0.816,0.492,1.617,0.779c0.67,0.241,1.158,0.459,1.463,0.652
				c0.307,0.194,0.535,0.414,0.688,0.66S262.449,49.786,262.449,50.119z"/>
			<path fill="#FFFFFF" d="M264.951,44.623v4.813c0,0.747,0.158,1.291,0.473,1.63c0.314,0.34,0.801,0.51,1.463,0.51
				c0.883,0,1.533-0.224,1.951-0.67c0.416-0.447,0.625-1.174,0.625-2.181v-4.102h0.67v7.431h-0.574l-0.123-1.025h-0.041
				c-0.482,0.774-1.342,1.162-2.576,1.162c-1.691,0-2.537-0.905-2.537-2.714v-4.854H264.951z"/>
			<path fill="#FFFFFF" d="M280.865,50.119c0,0.665-0.252,1.177-0.758,1.534c-0.506,0.358-1.225,0.537-2.154,0.537
				c-0.992,0-1.781-0.153-2.365-0.458v-0.731c0.748,0.373,1.537,0.561,2.365,0.561c0.734,0,1.291-0.122,1.672-0.366
				c0.381-0.243,0.57-0.568,0.57-0.974c0-0.374-0.15-0.688-0.455-0.943c-0.303-0.256-0.801-0.506-1.492-0.752
				c-0.744-0.27-1.266-0.5-1.566-0.694c-0.301-0.193-0.527-0.412-0.68-0.656c-0.152-0.243-0.229-0.541-0.229-0.892
				c0-0.557,0.232-0.996,0.699-1.319c0.469-0.324,1.121-0.485,1.959-0.485c0.803,0,1.564,0.15,2.283,0.451l-0.252,0.615
				c-0.73-0.301-1.406-0.451-2.031-0.451c-0.605,0-1.086,0.1-1.441,0.301c-0.355,0.2-0.533,0.479-0.533,0.834
				c0,0.387,0.137,0.697,0.412,0.93c0.277,0.232,0.816,0.492,1.617,0.779c0.67,0.241,1.158,0.459,1.463,0.652
				c0.307,0.194,0.535,0.414,0.688,0.66S280.865,49.786,280.865,50.119z"/>
			<path fill="#FFFFFF" d="M285.781,52.191c-1.08,0-1.922-0.333-2.527-0.998c-0.604-0.666-0.904-1.598-0.904-2.796
				c0-1.186,0.291-2.134,0.875-2.848c0.582-0.713,1.369-1.069,2.357-1.069c0.875,0,1.566,0.305,2.072,0.916
				c0.506,0.61,0.758,1.439,0.758,2.488v0.547h-5.352c0.008,1.021,0.246,1.8,0.713,2.338c0.469,0.537,1.137,0.807,2.008,0.807
				c0.424,0,0.795-0.03,1.117-0.089c0.32-0.06,0.729-0.188,1.221-0.383v0.615c-0.42,0.182-0.807,0.307-1.162,0.372
				C286.602,52.158,286.209,52.191,285.781,52.191z M285.582,45.081c-0.715,0-1.289,0.235-1.723,0.707
				c-0.432,0.472-0.686,1.152-0.758,2.041h4.594c0-0.861-0.188-1.535-0.561-2.021C286.76,45.324,286.244,45.081,285.582,45.081z"/>
			<path fill="#FFFFFF" d="M293.389,44.48c0.314,0,0.652,0.031,1.012,0.096l-0.129,0.649c-0.311-0.078-0.631-0.116-0.965-0.116
				c-0.633,0-1.152,0.269-1.559,0.807c-0.404,0.537-0.607,1.217-0.607,2.037v4.102h-0.678v-7.431h0.574l0.068,1.34h0.049
				c0.305-0.547,0.631-0.931,0.977-1.152C292.479,44.59,292.897,44.48,293.389,44.48z"/>
			<path fill="#FFFFFF" d="M297.539,52.054l-2.871-7.431h0.697l1.92,5.052c0.256,0.646,0.447,1.212,0.574,1.695h0.041
				c0.188-0.62,0.379-1.189,0.574-1.709l1.922-5.038h0.697l-2.871,7.431H297.539z"/>
			<path fill="#FFFFFF" d="M302.242,42.559c0-0.438,0.143-0.656,0.43-0.656c0.143,0,0.252,0.057,0.332,0.171
				c0.08,0.113,0.119,0.275,0.119,0.485c0,0.205-0.039,0.366-0.119,0.485c-0.08,0.118-0.189,0.178-0.332,0.178
				C302.385,43.222,302.242,43,302.242,42.559z M303.014,52.054h-0.676v-7.431h0.676V52.054z"/>
			<path fill="#FFFFFF" d="M308.469,52.191c-1.061,0-1.893-0.335-2.494-1.005s-0.902-1.604-0.902-2.803
				c0-1.23,0.313-2.188,0.936-2.875c0.625-0.686,1.479-1.028,2.564-1.028c0.643,0,1.258,0.111,1.846,0.335l-0.186,0.602
				c-0.643-0.215-1.201-0.321-1.674-0.321c-0.912,0-1.602,0.281-2.072,0.844c-0.469,0.563-0.703,1.373-0.703,2.431
				c0,1.002,0.234,1.787,0.703,2.354c0.471,0.567,1.127,0.852,1.969,0.852c0.676,0,1.301-0.121,1.881-0.362v0.629
				C309.861,52.074,309.24,52.191,308.469,52.191z"/>
			<path fill="#FFFFFF" d="M312.059,42.559c0-0.438,0.143-0.656,0.43-0.656c0.143,0,0.252,0.057,0.332,0.171
				c0.08,0.113,0.119,0.275,0.119,0.485c0,0.205-0.039,0.366-0.119,0.485c-0.08,0.118-0.189,0.178-0.332,0.178
				C312.201,43.222,312.059,43,312.059,42.559z M312.83,52.054h-0.676v-7.431h0.676V52.054z"/>
			<path fill="#FFFFFF" d="M321.465,48.328c0,1.212-0.295,2.159-0.883,2.84c-0.588,0.682-1.398,1.022-2.434,1.022
				c-0.65,0-1.225-0.157-1.723-0.472c-0.496-0.314-0.877-0.766-1.141-1.354c-0.266-0.588-0.396-1.268-0.396-2.037
				c0-1.213,0.293-2.157,0.881-2.834s1.395-1.015,2.42-1.015c1.021,0,1.822,0.343,2.402,1.028
				C321.174,46.195,321.465,47.134,321.465,48.328z M315.6,48.328c0,1.021,0.225,1.817,0.672,2.389
				c0.449,0.572,1.084,0.858,1.904,0.858s1.455-0.286,1.904-0.858c0.449-0.571,0.674-1.368,0.674-2.389
				c0-1.025-0.227-1.821-0.682-2.386c-0.453-0.565-1.09-0.848-1.91-0.848s-1.453,0.281-1.896,0.844
				C315.82,46.502,315.6,47.298,315.6,48.328z"/>
		</g>
	</g>
	<g>
		<path fill="#FFFFFF" d="M80.484,52.224c2.803,0,5.523,0,8.366,0c0-14.166,0-28.214,0-42.313c-2.845,0-5.622,0-8.366,0
			C80.484,24.072,80.484,38.122,80.484,52.224z"/>
		<path fill="#FFFFFF" d="M0,35.266c2.837,0,5.586,0,8.366,0c0-11.808,0-23.546,0-35.266C5.508,0,2.76,0,0,0
			C0,11.8,0,23.51,0,35.266z"/>
		<path fill="#FFFFFF" d="M22.61,35.245c2.856,0,5.637,0,8.447,0c0-8.504,0-16.917,0-25.388c-2.827,0-5.584,0-8.447,0
			C22.61,18.376,22.61,26.791,22.61,35.245z"/>
		<path fill="#FFFFFF" d="M103.074,35.275c2.813,0,5.53,0,8.323,0c0-8.561,0-16.981,0-25.379c-2.835,0-5.583,0-8.323,0
			C103.074,18.41,103.074,26.827,103.074,35.275z"/>
		<path fill="#FFFFFF" d="M93.181,35.253c2.855,0,5.605,0,8.412,0c0-8.461,0-16.839,0-25.379c-2.848,0-5.631,0-8.412,0
			C93.181,18.388,93.181,26.827,93.181,35.253z"/>
		<path fill="#FFFFFF" d="M67.739,35.251c2.854,0,5.639,0,8.445,0c0-8.496,0-16.909,0-25.386c-2.83,0-5.585,0-8.445,0
			C67.739,18.379,67.739,26.79,67.739,35.251z"/>
		<path fill="#FFFFFF" d="M45.202,35.272c2.835,0,5.589,0,8.436,0c0-8.534,0-16.922,0-25.383c-2.842,0-5.623,0-8.436,0
			C45.202,18.391,45.202,26.807,45.202,35.272z"/>
		<path fill="#FFFFFF" d="M9.955,35.255c2.805,0,5.545,0,8.359,0c0-8.487,0-16.894,0-25.377c-2.786,0-5.501,0-8.359,0
			C9.955,18.374,9.955,26.782,9.955,35.255z"/>
		<path fill="#FFFFFF" d="M55.01,25.28c2.852,0,5.635,0,8.469,0c0-5.144,0-10.217,0-15.374c-2.901,0-5.682,0-8.469,0
			C55.01,15.082,55.01,20.153,55.01,25.28z"/>
		<path fill="#FFFFFF" d="M76.142,0.002c-2.829,0-5.57,0-8.323,0c0,2.838,0,5.584,0,8.378c2.806,0,5.52,0,8.323,0
			C76.142,5.499,76.142,2.755,76.142,0.002z"/>
		<path fill="#FFFFFF" d="M88.82,0.002c-2.848,0-5.597,0-8.326,0c0,2.845,0,5.594,0,8.372c2.81,0,5.528,0,8.326,0
			C88.82,5.485,88.82,2.739,88.82,0.002z"/>
		<path fill="#FFFFFF" d="M54.992,35.273c2.894,0,5.644,0,8.468,0c0-2.841,0-5.619,0-8.435c-2.856,0-5.637,0-8.468,0
			C54.992,29.666,54.992,32.415,54.992,35.273z"/>
		<path fill="#FFFFFF" d="M32.49,18.28c2.856,0,5.612,0,8.42,0c0-2.827,0-5.577,0-8.397c-2.832,0-5.614,0-8.42,0
			C32.49,12.747,32.49,15.528,32.49,18.28z"/>
	</g>
</g>
</svg>
